<svg id="图层_2" data-name="图层 2" xmlns="http://www.w3.org/2000/svg" xmlns:xlink="http://www.w3.org/1999/xlink" viewBox="0 0 1080 1920"><defs><style>.cls-1{fill:none;}.cls-2{fill:#231815;}.cls-3{fill:url(#_6_dpi_10_);}.cls-4{fill:#fff;}.cls-5{fill:url(#未命名的渐变_4);}.cls-6{fill:url(#未命名的渐变_4-2);}.cls-7{fill:#ffce3d;}.cls-8{fill:#5e5e5e;}.cls-9{fill:#999;}</style><pattern id="_6_dpi_10_" data-name="6 dpi 10%" width="48" height="48" patternUnits="userSpaceOnUse" viewBox="0 0 48 48"><rect class="cls-1" width="48" height="48"/><circle class="cls-2" cx="24" cy="48" r="1.2"/><circle class="cls-2" cx="48" cy="48" r="1.2"/><circle class="cls-2" cx="24" cy="24" r="1.2"/><circle class="cls-2" cx="48" cy="24" r="1.2"/><circle class="cls-2" cx="36" cy="36" r="1.2"/><circle class="cls-2" cx="12" cy="36" r="1.2"/><circle class="cls-2" cx="36" cy="12" r="1.2"/><circle class="cls-2" cx="12" cy="12" r="1.2"/><circle class="cls-2" cy="48" r="1.2"/><circle class="cls-2" cy="24" r="1.2"/><circle class="cls-2" cx="24" r="1.2"/><circle class="cls-2" cx="48" r="1.2"/><circle class="cls-2" r="1.2"/></pattern><linearGradient id="未命名的渐变_4" x1="436.99" y1="1866.63" x2="480.93" y2="1822.69" gradientUnits="userSpaceOnUse"><stop offset="0" stop-color="#a0d6ff"/><stop offset="1" stop-color="#4fb2ff"/></linearGradient><linearGradient id="未命名的渐变_4-2" x1="481.46" y1="1834.41" x2="487.04" y2="1828.83" xlink:href="#未命名的渐变_4"/></defs><title>画板 1</title><rect class="cls-3" width="1080" height="1920"/><rect class="cls-4" x="399.27" y="1796" width="347.73" height="86" rx="27.83" ry="27.83"/><path class="cls-5" d="M476.2,1868.63a6.68,6.68,0,0,0,6.68-6.68l0-13a17.39,17.39,0,0,1,2.8-9.51h0a10.74,10.74,0,0,0,1.53-4.13,12.39,12.39,0,0,1-7.11-.41,3.07,3.07,0,0,1-1.43-4.69,19.1,19.1,0,0,1,5-4.72c-.27-.24-.55-.46-.84-.67l-17.54-12.72a10.84,10.84,0,0,0-12.71,0l-17.54,12.71a10.82,10.82,0,0,0-4.48,8.78h0v.09a10.76,10.76,0,0,0,1.66,5.75h0a17.39,17.39,0,0,1,2.8,9.51l0,13a6.68,6.68,0,0,0,6.68,6.68H476.2ZM447.92,1842V1836a1.63,1.63,0,1,1,3.25,0V1842a1.63,1.63,0,1,1-3.25,0Zm20.14,10.5h0a10.81,10.81,0,0,1-18.18,0h0a1.48,1.48,0,0,1-.34-1,1.52,1.52,0,0,1,1.52-1.52,2.66,2.66,0,0,1,1.14.51,10.81,10.81,0,0,0,13.58,0h0a1.52,1.52,0,0,1,2.27,2Zm2.23-9.43a1.41,1.41,0,0,1-2,.22l-4.08-3.28a1.41,1.41,0,0,1,0-2.22l4.08-3.17a1.41,1.41,0,0,1,1.73,2.23l-2.67,2.08,2.69,2.16A1.41,1.41,0,0,1,470.3,1843.12Z"/><path class="cls-6" d="M479.94,1831.09a1.51,1.51,0,0,0,.71,2.31,10.84,10.84,0,0,0,6.7.23v-.05a10.83,10.83,0,0,0-2.55-7A17.42,17.42,0,0,0,479.94,1831.09Z"/><path class="cls-7" d="M479.94,1831.09a1.51,1.51,0,0,0,.71,2.31,10.82,10.82,0,0,0,14.2-7.56,1.51,1.51,0,0,0-1.54-1.88A17.53,17.53,0,0,0,479.94,1831.09Z"/><path class="cls-8" d="M556.51,1855.75h-17.6a1.73,1.73,0,0,1-1.73-1.73v-28.07a1.73,1.73,0,0,1,1.73-1.73h17.6a1.73,1.73,0,0,1,1.73,1.73V1854A1.73,1.73,0,0,1,556.51,1855.75ZM540,1853h15.49v-26H540Zm3.95-2.45h0a1.38,1.38,0,0,1-1.24-1.5l.83-9.15h-.17a1.38,1.38,0,0,1-1.38-1.38v0a1.38,1.38,0,0,1,1.38-1.38H552a1.38,1.38,0,0,1,1.38,1.38v0a1.38,1.38,0,0,1-1.38,1.38h-.73v6.61H552a1.38,1.38,0,0,1,1.38,1.38v0a1.38,1.38,0,0,1-1.38,1.38h-1.59a1.93,1.93,0,0,1-1.93-1.93v-7.47H546.3l-.87,9.4A1.38,1.38,0,0,1,543.92,1850.51Zm7-17.1h-6.73a1.39,1.39,0,0,1-1.39-1.39h0a1.39,1.39,0,0,1,1.39-1.39H551a1.39,1.39,0,0,1,1.39,1.39h0A1.39,1.39,0,0,1,551,1833.41Z"/><path class="cls-8" d="M586.42,1828.36h-7.68v23.57h9a1.39,1.39,0,0,1,1.39,1.39h0a1.39,1.39,0,0,1-1.39,1.39H567a1.39,1.39,0,0,1-1.39-1.39h0a1.39,1.39,0,0,1,1.39-1.39h9v-23.57h-7.68a1.39,1.39,0,0,1-1.39-1.39h0a1.39,1.39,0,0,1,1.39-1.39h18.15a1.39,1.39,0,0,1,1.39,1.39h0A1.39,1.39,0,0,1,586.42,1828.36Z"/><path class="cls-8" d="M594.59,1840.85h0a1.39,1.39,0,0,1-.66-1.84l7.53-16.33a1.39,1.39,0,0,1,1.84-.68h0a1.39,1.39,0,0,1,.69,1.85l-2.36,5.1v26.79a1.39,1.39,0,0,1-1.39,1.39h0a1.39,1.39,0,0,1-1.39-1.39V1835l-2.4,5.17A1.39,1.39,0,0,1,594.59,1840.85ZM612.74,1857h0a1.39,1.39,0,0,1-1.39-1.39v-24h-2.71l-1.21,4.82a1.39,1.39,0,0,1-1.69,1h0a1.39,1.39,0,0,1-1-1.69l3.23-12.87a1.39,1.39,0,0,1,1.69-1h0a1.39,1.39,0,0,1,1,1.69l-1.33,5.26h10.23a1.39,1.39,0,0,1,1.39,1.39h0a1.39,1.39,0,0,1-1.39,1.39h-5.42v6.53h4.66a1.39,1.39,0,0,1,1.39,1.39h0a1.39,1.39,0,0,1-1.39,1.39h-4.66v5.81h4.66a1.39,1.39,0,0,1,1.39,1.39h0a1.39,1.39,0,0,1-1.39,1.39h-4.66v6.09A1.39,1.39,0,0,1,612.74,1857Z"/><path class="cls-8" d="M643.24,1834.53h-7.65l-2.39,5.17h8.48l-.78-1.87a1.39,1.39,0,0,1,.74-1.81h0a1.39,1.39,0,0,1,1.82.73l1.36,3.2a1.82,1.82,0,0,1-1.67,2.53h-4.65v3.94h7.65a1.39,1.39,0,0,1,1.39,1.39h0a1.39,1.39,0,0,1-1.39,1.39h-7.65v4.22H648a1.39,1.39,0,0,1,1.39,1.39h0a1.39,1.39,0,0,1-1.39,1.39H626.07a1.39,1.39,0,0,1-1.39-1.39h0a1.39,1.39,0,0,1,1.39-1.39h9.64v-4.22H628a1.39,1.39,0,0,1-1.39-1.39h0a1.39,1.39,0,0,1,1.39-1.39h7.73v-3.94H631.5a1.7,1.7,0,0,1-1.55-2.4l2.53-5.56h-1.6a1.39,1.39,0,0,1-1.39-1.39h0a1.39,1.39,0,0,1,1.39-1.39h12.35a1.39,1.39,0,0,1,1.39,1.39h0A1.39,1.39,0,0,1,643.24,1834.53Zm4.14,0h0a1.39,1.39,0,0,1-1.39-1.39v-4.78H628.22v4.74a1.39,1.39,0,0,1-1.39,1.39h0a1.39,1.39,0,0,1-1.39-1.39v-5.82a1.71,1.71,0,0,1,1.71-1.71h8.6v-2.27a1.39,1.39,0,0,1,1.39-1.39h0a1.39,1.39,0,0,1,1.39,1.39v2.27h8.52a1.71,1.71,0,0,1,1.71,1.71v5.86A1.39,1.39,0,0,1,647.38,1834.53Z"/><path class="cls-8" d="M519,1826.67a.64.64,0,0,0,.64-.61c0-.06,0-.11,0-.17h-.57v0h-1.77a7.37,7.37,0,0,0,1.48.72A.64.64,0,0,0,519,1826.67Z"/><path class="cls-8" d="M528.54,1852.18l-6.64-9.38,5.11-4.29a1.38,1.38,0,0,0,.17-1.95l0,0a1.38,1.38,0,0,0-2-.17l-5.19,4.39a29.91,29.91,0,0,0-1.71-6.45h4.22a1.39,1.39,0,1,0,0-2.79h-9.71a1.39,1.39,0,0,0,0,2.79h2.47a4,4,0,0,1,.28.6l-8.11,5a1.39,1.39,0,0,0-.46,1.9h0a1.39,1.39,0,0,0,1.92.47l7.56-4.67c.2.72.4,1.47.56,2.31l-9.86,6.55a1.39,1.39,0,1,0,1.54,2.31l8.76-5.84a21.39,21.39,0,0,1,.16,2.79l-10.36,7.06a1.39,1.39,0,0,0-.37,1.92h0a1.39,1.39,0,0,0,1.94.37l8.68-5.9a28.65,28.65,0,0,1-1.46,6.47,1.41,1.41,0,0,0,.78,1.78h0a1.4,1.4,0,0,0,1.86-.81,30.8,30.8,0,0,0,1.77-11.14l5.81,8.26a1.38,1.38,0,1,0,2.26-1.6Z"/><path class="cls-8" d="M508.24,1834a1.39,1.39,0,0,0,1.39-1.39v-3.9h16.12v3.9a1.39,1.39,0,0,0,1.39,1.39h0a1.39,1.39,0,0,0,1.39-1.39v-5a1.73,1.73,0,0,0-1.73-1.73h-6.29c0,.07,0,.15,0,.22a1.49,1.49,0,0,1-2,1.32,8.3,8.3,0,0,1-2.63-1.54h-7.32a1.73,1.73,0,0,0-1.73,1.73v5A1.39,1.39,0,0,0,508.24,1834Z"/><path class="cls-7" d="M518.82,1826.63a.64.64,0,0,0,.85-.57,4.59,4.59,0,0,0-4.8-4.85.64.64,0,0,0-.58.85A7.44,7.44,0,0,0,518.82,1826.63Z"/><path class="cls-9" d="M669.27,1834.17a9.43,9.43,0,0,1-1.61,2.5l-1.06-.74a9.85,9.85,0,0,0,2.38-5.5l1.25.19a16.36,16.36,0,0,1-.53,2.33H673v-3.1h1.3v3.1h4.66v1.22h-4.66v3.5h5.33v1.22h-5.33v2.9H679v6.26a1.71,1.71,0,0,1-1.92,1.94h-1.32l-.34-1.25,1.25.07q1.08,0,1.08-1V1843h-3.46v8.74H673V1843h-3.53v7.2h-1.27v-8.4H673v-2.9h-6v-1.22h6v-3.5Zm12-2.14h1.27V1847h-1.27Zm.74,19.42-.29-1.22q1.73.07,3.34.07a1.09,1.09,0,0,0,1.22-1.25v-19.18h1.3v19.51a1.82,1.82,0,0,1-2.06,2.06Z"/><path class="cls-9" d="M693.84,1837.62a35.69,35.69,0,0,1-2.83,3.31l-.41-1.37a26.81,26.81,0,0,0,5.81-9.79l1.2.55a26.87,26.87,0,0,1-2.47,5.35v16h-1.3Zm7.22-3a28.08,28.08,0,0,1-3.89,6.17l-.91-1.08a28.94,28.94,0,0,0,5.33-10l1.3.31q-.46,1.42-1.25,3.36h10.75v1.27H704V1839h7.27v1.3H704v4.44h7.46V1846H704v5.71h-1.3V1834.6Z"/></svg>