<svg id="图层_2" data-name="图层 2" xmlns="http://www.w3.org/2000/svg" viewBox="0 0 1080 1920"><defs><style>.cls-1{opacity:0.1;}.cls-2,.cls-3{fill:none;stroke-miterlimit:10;stroke-width:20px;}.cls-2{stroke:#ff0;}.cls-3{stroke:#71ffda;}</style></defs><title>画板 1</title><path class="cls-1" d="M207,818A144,144,0,1,0,351,962,144,144,0,0,0,207,818Zm0,200a56,56,0,1,1,56-56A56,56,0,0,1,207,1018Z"/><circle class="cls-1" cx="893" cy="831" r="82"/><circle class="cls-1" cx="184" cy="527" r="86"/><path class="cls-2" d="M431,291s16,72,94,60,82,96,82,96"/><path class="cls-3" d="M443.76,1159.16s25.1,47.92,61,0,53.05-36.51,69,0,50.2,31.95,65-5.13,45.64-38.22,63.89,1.71,47.92,37.65,67.31-.57,41.07-39.36,58.19,0"/></svg>