<svg xmlns="http://www.w3.org/2000/svg" viewBox="0 0 1080 1920"><defs><style>.cls-1{isolation:isolate;}.cls-2{opacity:0.1;mix-blend-mode:multiply;}.cls-3{fill:#73c3ff;}</style></defs><title>画板 1</title><g class="cls-1"><g id="图层_2" data-name="图层 2"><g class="cls-2"><path d="M139.38,572l22.44,5.69V506.39h53.41v91.33H199.58V529.93H178.25v67.78H161.81V578.44l-12.17,62.1-22-5.85Zm-4.74-66.84h24.49v24.49H134.64Zm0,33.81h24.49v24.33H134.64Zm46.93,1.42h14.69V592.5c2.05,6,14.54,19.91,22.44,27.33V505.12h14.69V631.84H218.7v-3l-9.16,10.9c-8.22-8.06-13.75-15.48-20.38-24.49-7.27,10.11-13,15.64-24.17,24.49L153.6,624.1c4.74-2.69,27-26.39,28-31.6ZM237,505.12h16.75v134H233.39l3.63-7.27Z"/><path d="M267,551.58h122.3v23.86H267Z"/><path d="M411.13,572l22.44,5.69V506.39H487v91.33H471.33V529.93H450v67.78H433.57V578.44l-12.17,62.1-22-5.85Zm-4.74-66.84h24.49v24.49H406.39Zm0,33.81h24.49v24.33H406.39Zm46.93,1.42H468V592.5c2.05,6,14.54,19.91,22.44,27.33V505.12h14.69V631.84H490.45v-3l-9.16,10.9c-8.22-8.06-13.75-15.48-20.38-24.49-7.27,10.11-13,15.64-24.17,24.49L425.35,624.1c4.74-2.69,27-26.39,28-31.6Zm55.46-35.24h16.75v134H505.15l3.63-7.27Z"/><path d="M611.16,545.89H603.1l-6.32,16.91H578.29v78.37h-24V572.27L547,585.7l-13.9-18.64,36.66-67.94,21,5.21-12.48,23.23v21.33l17.86-48h23.7l-8.37,22.59h50.09v39.34h-21V545.89h-5.06v95.28h-31l6.64-9Zm-25.44,26.23h21.49l-1.74,52.62H583.83Zm54.35,0h21.33v52.62H640.08Z"/><path d="M686.36,609.41V595.34h-7.43V572h29.39v26.7c0,10.59,6.32,21.49,21.33,21.49H799.5v21.33h-74.1c-13.27,0-22.12-4.42-27.18-13.11l-11.38,11.85-14.22-18Zm-5.69-102.07h27.81v24H680.68Zm0,32.39h27.81V563.9H680.68Zm38.71-30.34,71.89-2.84,1.9,19.28-24.17.95v12.48h28.28v19.12H769v9.8H791.6v46.77H721.28V568.17h22.44v-9.8H714.81V539.25h28.92V527.88l-22.75.79Zm26.54,77.11v10.43h20.7V586.49Z"/><path d="M838.67,557.74l-15.33,12.64L807.07,550,872,499.28,936.64,550l-16.27,20.38-15.8-13V573.7H838.67ZM827,580.65h89.43v60.67H827Zm17.85-28h53.88l-27-22.12Zm7.43,49.61v16.43h38.87V602.29Z"/><path d="M149.33,703.4h43.2V716h-14a96.84,96.84,0,0,1,3.84,10.8l16.92-12.24,9.24,12.72-18.24,12.6,23.4,28L201,779.36l-16-20.64a78.14,78.14,0,0,1-7.92,27.12l-22.56-4.92,5-3a86.18,86.18,0,0,0,4.2-12.6l-26.16,16.32-7.92-11.76L166,748.4v-.48c0-1.08,0-2.28-.12-3.48l-29.16,17.64-7.2-11.28,34.32-19.68-.72-3-25.68,14.52-7.08-12L158.21,716h-8.88ZM129.65,713V685.28h31.08v-8.52h20.4v8.52H212.2V713H195.88V699.92H146V713Z"/><path d="M233.32,678.92H316V783.2H233.32Zm19.32,17v70H296.8V696Zm2.28,22.44h39.36v14.76h-4.56v15h1.2l3.48-3.72v18.48H274.6V733.16h-2.4l-3,30.36-15-1.32,3.24-29h-2.52ZM258,700.16h32.88v13.92H258Z"/><path d="M341,683.48h72.48V700.4H387.52v62.52H418v16.8H336.4v-16.8h30.48V700.4H341Z"/><path d="M458.8,675.08l16,4-9.6,17.88v86H446.92V730.88l-5.4,10L431,726.68Zm30.12,35.52h-2.16L483,723.44H466.36l13.68-47h16.68l-5,17.16H527.2v17H507.4v10.08h17.28V737.6H507.4v9.12h17.28v16.92H507.4V783H488.92Z"/><path d="M540.52,714.44V684.68H573v-8.16h21.12v8.16h32.52v29.88H611.44V698.84H555.76v15.6Zm16.92-10.68h52.32v12.72H581.2L575,728.12h20.88l-4.92-9h16.32L617.08,738a2.08,2.08,0,0,1-1.8,2.64H593.92v6.72h25.92V762H593.92v6.24h32.4v15H540.76v-15h32.4V762h-25.8V747.32h25.8V740.6H553.24a1.91,1.91,0,0,1-1.56-2.76L563,716.48h-5.52Z"/><path d="M679.84,715.4v67.68H642.28V690.8h9.84l2.64-14.28H672l-2.52,14.28h10.32v13.08l13.8-26.28L709,681.44l-4.56,8.76h26.4v92.88H708l4.32-6.36v-69.6H695.8l-7.56,14.64Zm-21.6-6.84V727h5.64V708.56Zm5.64,56.88V744.32h-5.64v21.12Zm22.8-36.6h21.84v16.92H686.68Z"/><path d="M766.12,674.84l16.68,4.68-10,19v84.6H754v-49L749.32,743l-10.56-15.72Zm10.2,34.92h21.84V677.6H818v32.16h21.72v17.52H818v55.8h-19.8v-55.8H776.31Z"/><path d="M861.75,737.48l-15-11.16,36.48-50.88,16.2,10Zm43.32-41,16.68,9.24-37,57.36h28.92l-7.92-17.28,16.56-8.88,18.24,40c.84,1.92.12,4.08-1.68,4.08H853.47c-2.4,0-2.76-2.4-1.68-4.08Z"/><path d="M339,887.12h31.2v-21.6H406v21.6h32.64v29h-10.8v29.52H441v31.2H334v-31.2h13.92V916.16H339Zm4.08,191H435V989.84H343.12ZM377.2,1047v-25.2h24.48V1047Zm3.12-101.28h15.6V916.16h-15.6Zm98.4,132.24v-14.4h11.76c22.08,0,34.56-24.24,34.56-52.56a107,107,0,0,0-15.84-55l18-86.16H445.37v208.08Zm0-125v-50.4h9.6Zm0,74.88V964.4c7.68,13.92,12,31.2,12,42.24,0,12.24-3.84,21.12-10.08,21.12Z"/><path d="M550.48,928.4h38.88V1076H550.48ZM583.6,915l24.48-24.48L580,862.88l-24.24,24.48Zm36.48-38.4v34.56h60.48v153.36L672.4,1076h47.28V876.56Z"/></g><path d="M146.38,565l22.44,5.69V499.39h53.41v91.33H206.58V522.93H185.25v67.78H168.81V571.44l-12.17,62.1-22-5.85Zm-4.74-66.84h24.49v24.49H141.64Zm0,33.81h24.49v24.33H141.64Zm46.93,1.42h14.69V585.5c2.05,6,14.54,19.91,22.44,27.33V498.12h14.69V624.84H225.7v-3l-9.16,10.9c-8.22-8.06-13.75-15.48-20.38-24.49-7.27,10.11-13,15.64-24.17,24.49L160.6,617.1c4.74-2.69,27-26.39,28-31.6ZM244,498.12h16.75v134H240.39l3.63-7.27Z"/><path d="M274,544.58h122.3v23.86H274Z"/><path d="M418.13,565l22.44,5.69V499.39H494v91.33H478.33V522.93H457v67.78H440.57V571.44l-12.17,62.1-22-5.85Zm-4.74-66.84h24.49v24.49H413.39Zm0,33.81h24.49v24.33H413.39Zm46.93,1.42H475V585.5c2.05,6,14.54,19.91,22.44,27.33V498.12h14.69V624.84H497.45v-3l-9.16,10.9c-8.22-8.06-13.75-15.48-20.38-24.49-7.27,10.11-13,15.64-24.17,24.49L432.35,617.1c4.74-2.69,27-26.39,28-31.6Zm55.46-35.24h16.75v134H512.15l3.63-7.27Z"/><path d="M618.16,538.89H610.1l-6.32,16.91H585.29v78.37h-24V565.27L554,578.7l-13.9-18.64,36.66-67.94,21,5.21-12.48,23.23v21.33l17.86-48h23.7l-8.37,22.59h50.09v39.34h-21V538.89h-5.06v95.28h-31l6.64-9Zm-25.44,26.23h21.49l-1.74,52.62H590.83Zm54.35,0h21.33v52.62H647.08Z"/><path d="M693.36,602.41V588.34h-7.43V565h29.39v26.7c0,10.59,6.32,21.49,21.33,21.49H806.5v21.33h-74.1c-13.27,0-22.12-4.42-27.18-13.11l-11.38,11.85-14.22-18Zm-5.69-102.07h27.81v24H687.68Zm0,32.39h27.81V556.9H687.68Zm38.71-30.34,71.89-2.84,1.9,19.28-24.17.95v12.48h28.28v19.12H776v9.8H798.6v46.77H728.28V561.17h22.44v-9.8H721.81V532.25h28.92V520.88l-22.75.79Zm26.54,77.11v10.43h20.7V579.49Z"/><path d="M845.67,550.74l-15.33,12.64L814.07,543,879,492.28,943.64,543l-16.27,20.38-15.8-13V566.7H845.67ZM834,573.65h89.43v60.67H834Zm17.85-28h53.88l-27-22.12Zm7.43,49.61v16.43h38.87V595.29Z"/><path d="M156.33,696.4h43.2V709h-14a96.84,96.84,0,0,1,3.84,10.8l16.92-12.24,9.24,12.72-18.24,12.6,23.4,28L208,772.36l-16-20.64a78.14,78.14,0,0,1-7.92,27.12l-22.56-4.92,5-3a86.18,86.18,0,0,0,4.2-12.6l-26.16,16.32-7.92-11.76L173,741.4v-.48c0-1.08,0-2.28-.12-3.48l-29.16,17.64-7.2-11.28,34.32-19.68-.72-3-25.68,14.52-7.08-12L165.21,709h-8.88ZM136.65,706V678.28h31.08v-8.52h20.4v8.52H219.2V706H202.88V692.92H153V706Z"/><path d="M240.32,671.92H323V776.2H240.32Zm19.32,17v70H303.8V689Zm2.28,22.44h39.36v14.76h-4.56v15h1.2l3.48-3.72v18.48H281.6V726.16h-2.4l-3,30.36-15-1.32,3.24-29h-2.52ZM265,693.16h32.88v13.92H265Z"/><path d="M348,676.48h72.48V693.4H394.52v62.52H425v16.8H343.4v-16.8h30.48V693.4H348Z"/><path d="M465.8,668.08l16,4-9.6,17.88v86H453.92V723.88l-5.4,10L438,719.68Zm30.12,35.52h-2.16L490,716.44H473.36l13.68-47h16.68l-5,17.16H534.2v17H514.4v10.08h17.28V730.6H514.4v9.12h17.28v16.92H514.4V776H495.92Z"/><path d="M547.52,707.44V677.68H580v-8.16h21.12v8.16h32.52v29.88H618.44V691.84H562.76v15.6Zm16.92-10.68h52.32v12.72H588.2L582,721.12h20.88l-4.92-9h16.32L624.08,731a2.08,2.08,0,0,1-1.8,2.64H600.92v6.72h25.92V755H600.92v6.24h32.4v15H547.76v-15h32.4V755h-25.8V740.32h25.8V733.6H560.24a1.91,1.91,0,0,1-1.56-2.76L570,709.48h-5.52Z"/><path d="M686.84,708.4v67.68H649.28V683.8h9.84l2.64-14.28H679l-2.52,14.28h10.32v13.08l13.8-26.28L716,674.44l-4.56,8.76h26.4v92.88H715l4.32-6.36v-69.6H702.8l-7.56,14.64Zm-21.6-6.84V720h5.64V701.56Zm5.64,56.88V737.32h-5.64v21.12Zm22.8-36.6h21.84v16.92H693.68Z"/><path d="M773.12,667.84l16.68,4.68-10,19v84.6H761v-49L756.32,736l-10.56-15.72Zm10.2,34.92h21.84V670.6H825v32.16h21.72v17.52H825v55.8h-19.8v-55.8H783.31Z"/><path d="M868.75,730.48l-15-11.16,36.48-50.88,16.2,10Zm43.32-41,16.68,9.24-37,57.36h28.92l-7.92-17.28,16.56-8.88,18.24,40c.84,1.92.12,4.08-1.68,4.08H860.47c-2.4,0-2.76-2.4-1.68-4.08Z"/><path class="cls-3" d="M346,880.12h31.2v-21.6H413v21.6h32.64v29h-10.8v29.52H448v31.2H341v-31.2h13.92V909.16H346Zm4.08,191H442V982.84H350.12ZM384.2,1040v-25.2h24.48V1040Zm3.12-101.28h15.6V909.16h-15.6Zm98.4,132.24v-14.4h11.76c22.08,0,34.56-24.24,34.56-52.56a107,107,0,0,0-15.84-55l18-86.16H452.37v208.08Zm0-125v-50.4h9.6Zm0,74.88V957.4c7.68,13.92,12,31.2,12,42.24,0,12.24-3.84,21.12-10.08,21.12Z"/><path class="cls-3" d="M557.48,921.4h38.88V1069H557.48ZM590.6,908l24.48-24.48L587,855.88l-24.24,24.48Zm36.48-38.4v34.56h60.48v153.36L679.4,1069h47.28V869.56Z"/><g class="cls-2"><rect x="270" y="1138" width="92" height="16"/><rect x="270" y="1164" width="92" height="16"/><rect x="270" y="1190" width="92" height="16"/></g><rect class="cls-3" x="274" y="1134" width="92" height="16"/><rect class="cls-3" x="274" y="1160" width="92" height="16"/><rect class="cls-3" x="274" y="1186" width="92" height="16"/></g></g></svg>