<svg xmlns="http://www.w3.org/2000/svg" viewBox="0 0 1080 1920"><defs><style>.cls-1{isolation:isolate;}.cls-2{opacity:0.1;mix-blend-mode:multiply;}.cls-3{fill:#73c3ff;}.cls-4{fill:#fff;}</style></defs><title>画板 1</title><g class="cls-1"><g id="图层_2" data-name="图层 2"><g class="cls-2"><rect x="69" y="1629" width="928" height="120"/></g><rect class="cls-3" x="76" y="1622" width="928" height="120"/><path class="cls-4" d="M436.64,1711.43v-22.72h-9.47a101.22,101.22,0,0,1-4.1,23.49L412.19,1711a118.06,118.06,0,0,0,3.78-22.33h-9.34v-9.54h9.6v-12.67h-6.59V1657h44.73v9.54h-6.66v12.67h9.47v9.54h-9.47v22.72Zm-9.34-32.25h9.34v-12.67H427.3Z"/><path class="cls-4" d="M475.3,1662.41h3.84l1-7.62,8.58.77-.9,6.85H498c-.19,6.34-.51,12-1.09,17l8.13-25,8.7,2.24-5.57,17.73h6.27l-2.94-9,8-2.88L525.6,1681c.26.7-.58,1.86-1.73,1.86H498.14a1.79,1.79,0,0,1-1.6-.77,64,64,0,0,1-4.54,17.66l5.89,4.8-5.31,6.78-4.86-4A42.75,42.75,0,0,1,483,1713l-7.3-5.57a44.52,44.52,0,0,0,4.8-6l-5.76-4.74,3.14-25.15H475.3Zm11.26,9.21-2.82,21.25,1,.9c3-7.1,3.84-14.46,4.1-22.14Zm12.1,14.4h24.77v25.15H498.65Zm9.09,9.09v7h6.66v-7Z"/><path class="cls-4" d="M546.08,1683.28l9.09,2.3v-28.86H576.8v37h-6.33v-27.45h-8.64v27.45h-6.66v-7.81L550.24,1711l-8.9-2.37Zm-1.92-27.07h9.92v9.92h-9.92Zm0,13.7h9.92v9.86h-9.92Zm19,.58h6v21.12c.83,2.43,5.89,8.06,9.09,11.07v-46.46h6v51.32h-6v-1.22l-3.71,4.42a75.44,75.44,0,0,1-8.25-9.92,43.46,43.46,0,0,1-9.79,9.92l-4.61-6.34c1.92-1.09,10.94-10.69,11.33-12.8Zm22.46-14.27h6.78v54.27h-8.25l1.47-2.94Z"/><path class="cls-4" d="M649.05,1654c.38,4.42,1,9.28,1.79,14.4H660v9.28h-7.49a162.19,162.19,0,0,0,8.64,29.5l2.62,2.5-12.29,2.18c-2.5-7.55-4.48-14.78-6.14-21.76h-3.46v10.17l5.25-.45v8.64l-19.26,1.41v-5.57l-13.25,7.36-4-8.83,5-2.37V1681h-6.33v-9.73h15.61V1696l3.84-1.86v7.23l4-.32v-10.94h-4.22v-8.51h15l-.77-3.9H627.17v-9.28h13.89c-.7-4.35-1.34-8.7-1.86-13.12Zm-36.48,3.84h10.37v9.79H612.57Zm39-1.28h7.3v9.47h-7.3Z"/></g></g></svg>