<svg xmlns="http://www.w3.org/2000/svg" xmlns:xlink="http://www.w3.org/1999/xlink" viewBox="0 0 1080 172"><defs><style>.cls-1{isolation:isolate;}.cls-2{opacity:0.1;mix-blend-mode:multiply;}.cls-3{fill:url(#未命名的渐变_15);}.cls-4{fill:#fff;}</style><linearGradient id="未命名的渐变_15" x1="498.92" y1="256.48" x2="591.08" y2="-87.48" gradientUnits="userSpaceOnUse"><stop offset="0" stop-color="#a0d6ff"/><stop offset="1" stop-color="#4fb2ff"/></linearGradient></defs><title>画板 5</title><g class="cls-1"><g id="图层_5" data-name="图层 5"><g class="cls-2"><rect x="74" y="31.5" width="928" height="120"/></g><rect class="cls-3" x="81" y="24.5" width="928" height="120"/><path class="cls-4" d="M447.79,59.28h45.95v9.09H475.82v14H491v9.47H475.82v22.21H464.74V68.37h-17Z"/><path class="cls-4" d="M513.83,77.52h49.53v9.66H513.83Z"/><path class="cls-4" d="M581.86,83.09h23.42v7.68h-4.1v3.71h4.74v6.78a85.64,85.64,0,0,0,7.3-7.49h-6.85V69.84h7l.64-3.71h-6.66V58.51H628.9v7.62H621l-.64,3.71h8.9V93.78h-6.59a74.84,74.84,0,0,0,9,7.68l-4.48,4.1h3.46V114H605.86c-5.18,0-6.46,0-9.34-.7a20.15,20.15,0,0,1-8.32-3.84l-1.09,4.67-7-2.5,4.74-20.22L592.1,93l-1.28,5.44a19.52,19.52,0,0,0,1.92,4.16V90.77H581.86Zm1.41-24.77h22V81.68h-22Zm7.74,7v2.24h6.66V65.3Zm6.66,9.41V72.53H591V74.7Zm3.52,27.58v3.26h8.06l-3.33-3.78v.51Zm10.75,3.26h12.22a59.1,59.1,0,0,1-6.27-6.46A74.06,74.06,0,0,1,611.94,105.55Zm3-25.6h5.82V91.66c.32.38.64.83,1.09,1.28V77.33H613.8V93.13l1.15-1.47Z"/></g></g></svg>