<svg xmlns="http://www.w3.org/2000/svg" viewBox="0 0 1080 1920"><defs><style>.cls-1{fill:none;stroke:#fff;stroke-miterlimit:10;stroke-width:3px;}.cls-2{fill:#fff;}</style></defs><title>share</title><g id="图层_2" data-name="图层 2"><path class="cls-1" d="M934.18,115.17l13.43-13.9s7.5,87-93,130.49-82.5,118.49-82.5,118.49"/><line class="cls-1" x1="947.61" y1="99.27" x2="958.84" y2="115.17"/><path class="cls-2" d="M662.05,415.31l-3.31-.29.82-10,3.36.29Zm21.46-14.4H660.75V386.7h8.93V373H673v5h14.11v3.36H673v5.33h10.46Zm-19.39-3.36h16v-7.49h-16Zm5.9,18h-3.36V405.32H670Zm7.58-.19h-3.36v-10h3.36Zm4.85,0-1-10.08,3.36-.34,1,10.08Z"/><path class="cls-2" d="M692.87,413.63l-.29-3.36,3-.24V382.38H699v27.41l3.41-.29V372.92h3.36V390h4.75v3.36h-4.75v15.89l4.7-.38.29,3.36Zm32,0h-12.1V372.92h3.36V390h8.45v3.36h-8.45v16.95h8.74Z"/><path class="cls-2" d="M730.88,394.71,728,393l11.57-18.67,2.83,1.78Zm22.27,20.69H749.8v-19h-7.58l-3.07,19.06-3.31-.53,3-18.53h-4.51v-3.36h18.87Zm5.09-21.12L746.1,375.89l2.78-1.87L761,392.46Z"/><path class="cls-2" d="M795.83,381.13H765v-3.36h13.78v-4.94h3.36v4.94h13.73ZM781.91,415.4h-3.36v-8.06H765V404h13.59v-.14l3.31-4.75H769.23v-3.36h19.11L782.53,404h13.25v3.36H781.91Zm9.7-22.47H769.38v-9.41H791.6Zm-18.87-3.36h15.5v-2.69h-15.5Z"/><path class="cls-2" d="M802.64,403.21l-3.07-1.39,8-16.85,3,1.44Zm15.27,12.24h-3.36V372.92h3.36Zm12-12.24L822,386.36l3.07-1.39,7.82,16.85Z"/><path class="cls-2" d="M839.7,414.63l-3.31-.62,3.36-19,3.31.58Zm2.3-33.12h-3.36v-7.44H842Zm0,10.23h-3.36v-7.39H842Zm15.46,21.94a59.4,59.4,0,0,1-6.1-7.73,43.57,43.57,0,0,1-6.77,7.92l-2.21-2.54a39.81,39.81,0,0,0,7.34-9.12V384.82h3.36v17.43a49.63,49.63,0,0,0,6.53,8.83v-37H863v38.55h-3.36v-1.06ZM858,402.2h-3.36V379.83h-6.53V402.2h-3.36V376.47H858Zm10,12.63h-3.36V374.07H868Z"/><path class="cls-2" d="M874.21,413.87,872.48,411l4.22-2.5V390.73h-5.52v-3.36h8.88v19.11l3-1.82,1.73,2.88Zm4.27-31.25h-3.36v-7.25h3.36Zm25.88,5.76h-6.62c1.44,8.64,3.55,18.82,6.1,26.21l-3.17,1.06a150.5,150.5,0,0,1-4.94-19.44v1.63H891v11l4.85-.43.29,3.36-12.62,1.1-.29-3.36,4.42-.38V397.83h-3.84v-3.36h11.62l-1.1-6.1H882.95V385h10.8c-.77-5.09-1.25-9.41-1.39-12l3.36-.19c.14,2.4.67,6.86,1.49,12.19h7.15ZM903,381.46H899.6v-7.1H903Z"/></g></svg>