<svg id="图层_1" data-name="图层 1" xmlns="http://www.w3.org/2000/svg" viewBox="0 0 1080 1920"><defs><style>.cls-1{opacity:0.4;}.cls-2{fill:none;stroke:#000;stroke-miterlimit:10;stroke-width:4px;}.cls-3{fill:#fff;opacity:0.6;}</style></defs><title>form</title><path d="M454.24,1596.43l-4.42-.38,1.09-13.37,4.48.38Zm28.61-19.2H452.51v-18.94h11.9v-18.24h4.48v6.66h18.81v4.48H468.89v7.1h14ZM457,1572.75h21.37v-10H457Zm7.87,23.93h-4.48v-13.57h4.48Zm10.11-.26h-4.48v-13.31H475Zm6.46.06-1.34-13.44,4.48-.45,1.34,13.44Z"/><path d="M495.33,1594.19l-.38-4.48,4-.32v-36.86h4.48v36.54l4.54-.38v-48.76h4.48v22.78h6.34v4.48h-6.34v21.18l6.27-.51.38,4.48Zm42.69.06H521.89v-54.33h4.48v22.78h11.26v4.48H526.37v22.59H538Z"/><path d="M542.5,1579l-1.34-4.29,7.17-2.18v-14.91h-5.89v-4.48h5.89V1540.5h4.48v12.61h5.06v4.48H552.8v13.5l4.42-1.34,1.28,4.29-5.7,1.79v21.5h-4.48v-20.16ZM568,1594.58a83.75,83.75,0,0,0,4.86-8.64,78.92,78.92,0,0,1-7.3-12.67l.06,23.74-4.48.06-.06-54h20.67v16.32h-4.48v-11.84H565.6v16.64h17.92l-.19,2.43a61.8,61.8,0,0,1-5.25,18.75,70.62,70.62,0,0,0,6.91,7.94l-3.13,3.2a69.62,69.62,0,0,1-6-6.59c-1.22,2.37-2.62,4.67-4.1,7Zm10.5-25.92h-10a65.23,65.23,0,0,0,6.46,12.42A56,56,0,0,0,578.53,1568.66Z"/><path d="M592.48,1579.47c6.78-4,12.29-7.68,16.77-11.78l-7.74-10.37-5.89,6.72-3.39-3,18.81-21.5,3.39,2.94-3.33,3.78h17l-1.22,3.07a55.28,55.28,0,0,1-16.58,23.29h17.92v22.53H604.83v-18.24c-3.07,2.11-6.4,4.22-10,6.4Zm14.72-28.73-2.69,3.14,7.94,10.62a49.69,49.69,0,0,0,9-13.76Zm2.11,39.93h14.46v-13.57H609.31Z"/><g class="cls-1"><path d="M152.33,1802.21a23.58,23.58,0,0,1-2.18,2.94l-1.74-1.09a17.84,17.84,0,0,0,3.89-6.3l1.93.42q-.45,1.23-.92,2.24h7.22v1.79h-4.73a27.25,27.25,0,0,1,1.74,2.83l-1.82.67a23.16,23.16,0,0,0-2-3.5Zm-3.61,4.26H160v-1.93h2.07v1.93h11.26v1.85H162.05v2.18h9.18v5.26q0,2.16-2.24,2.16h-1.9l-.5-1.79,1.82.08q.81,0,.81-.87v-3.08h-7.17v2.46a32.12,32.12,0,0,0,11.9,6.69l-1.06,1.82a33.71,33.71,0,0,1-10.84-6.55v7.2H160v-7.08a32.46,32.46,0,0,1-10.05,6.58l-1.18-1.76A31.78,31.78,0,0,0,160,1814.7v-2.44h-6.72v5.6h-2v-7.36H160v-2.18H148.72Zm15.32-4.26a21.4,21.4,0,0,1-1.51,2.55l-1.71-1.12a17.71,17.71,0,0,0,2.74-5.85l2,.42q-.39,1.32-.7,2.21h8.4v1.79H168a22.8,22.8,0,0,1,1.65,2.83l-1.76.67a25.53,25.53,0,0,0-2-3.5Z"/><path d="M190.22,1804.37l.31,2-8.12,1.26q.25,2.35.62,4.09a29.63,29.63,0,0,0,.84,3.22,26.13,26.13,0,0,0,4.2-6.64l1.76.92a27.11,27.11,0,0,1-5.18,7.92,18.72,18.72,0,0,0,.9,1.88q1.54,2.46,2.83,2.52.73-.11,1.57-4.4l1.71,1.09a24.65,24.65,0,0,1-1.26,3.64q-.84,1.79-1.9,1.79-1.93,0-3.86-2.69a16.1,16.1,0,0,1-1.4-2.46,23.11,23.11,0,0,1-5.91,3.64l-1.2-1.82a19.62,19.62,0,0,0,6.27-3.89,30.63,30.63,0,0,1-1-3.39,37.79,37.79,0,0,1-.9-5.12l-3.64.56-.31-2,3.75-.59q-.34-3.44-.34-7.73H182q0,4.09.25,7.42Zm-4.54-6.36a40.73,40.73,0,0,1,3,4.23l-1.71.84a34.51,34.51,0,0,0-2.94-4.26Zm7.34,2.55h2V1818h-2Zm1,23-.45-1.93q2.24.14,3.78.14a1.16,1.16,0,0,0,1.32-1.32v-22.23h2v22.74a2.31,2.31,0,0,1-2.63,2.6Z"/><path d="M211.25,1804.48a1.6,1.6,0,0,1,.48,1.18,1.63,1.63,0,0,1-.48,1.2,1.79,1.79,0,0,1-1.23.48,1.76,1.76,0,0,1-1.2-.48,1.63,1.63,0,0,1-.48-1.2,1.54,1.54,0,0,1,.48-1.18,1.63,1.63,0,0,1,1.2-.48A1.67,1.67,0,0,1,211.25,1804.48Zm0,10.25a1.6,1.6,0,0,1,.48,1.18,1.63,1.63,0,0,1-.48,1.2,1.79,1.79,0,0,1-1.23.48,1.76,1.76,0,0,1-1.2-.48,1.63,1.63,0,0,1-.48-1.2,1.54,1.54,0,0,1,.48-1.18,1.63,1.63,0,0,1,1.2-.48A1.67,1.67,0,0,1,211.25,1814.73Z"/><path d="M255.79,1799.25v22.12q0,2.24-2.58,2.24h-3.5l-.53-1.93q2.46.11,3.42.11,1.18,0,1.18-1.12v-19.57H236.92V1811q-.08,7.92-2.86,12.82l-1.51-1.37a25.56,25.56,0,0,0,2.35-11.31v-11.84ZM244.37,1802h1.93v2.32h5V1806h-5v2.77h6v1.76H238.41v-1.76h6V1806h-5.12v-1.68h5.12Zm-4.73,10.58h11.2v6.92h-11.2Zm9.27,5.18v-3.47h-7.34v3.47Z"/><path d="M269.15,1798.35h2v9.44q-.11,6.36-2.35,10.22a14.26,14.26,0,0,1-7.2,5.52l-1.12-1.79a13.33,13.33,0,0,0,6.75-5.18,15.64,15.64,0,0,0,1.54-4.7,55.51,55.51,0,0,1-7.36,3.86l-.59-2a51.49,51.49,0,0,0,8.2-3.95q.06-.64.11-1.93Zm-5.74,3a44.4,44.4,0,0,1,4.14,5.71l-1.65,1.15a45.15,45.15,0,0,0-4.14-5.82Zm14.11,21.78q-2.83,0-2.83-2.88v-21.92h2v11.2a36.28,36.28,0,0,1,4.17,1.85,30.93,30.93,0,0,1,3.5,2.13l-.87,2a25.63,25.63,0,0,0-3.75-2.49,17.92,17.92,0,0,0-3.05-1.43v8.26a1.25,1.25,0,0,0,1.43,1.4h3.64a1.86,1.86,0,0,0,1.46-.5q.53-.67.7-3.7l1.9.62q-.31,3.95-1.2,4.76a3.58,3.58,0,0,1-2.49.73Zm6.33-21.25a28.86,28.86,0,0,1-4.09,6.64l-1.68-1.2a24.34,24.34,0,0,0,4-6.3Z"/><path d="M289.56,1802.44h10.53v-4.09h2v4.09h10.53v1.93H304q2.91,4.84,9.94,8.71l-1.37,1.76q-7.36-4.7-10.28-10.47h-.2v11.42h-2v-11.42h-.2a25,25,0,0,1-10.56,10.7l-1.15-1.85a23.06,23.06,0,0,0,10-8.85h-8.62Zm4.26,15a28.7,28.7,0,0,1-3.61,6.27l-1.68-1.2a23.59,23.59,0,0,0,3.58-5.91Zm4.45-.22a59.14,59.14,0,0,1,1.71,6l-2,.45a43.6,43.6,0,0,0-1.6-6.1Zm5.88-.28a42.14,42.14,0,0,1,2.38,6.13l-2,.45a30.79,30.79,0,0,0-2.3-6.19Zm5.24-.67a56.33,56.33,0,0,1,4.31,6l-1.68,1.18a49.78,49.78,0,0,0-4.28-6.13Z"/><path d="M321.85,1823.8H320v-13.94a32.29,32.29,0,0,1-3.11,7.22l-.87-2.21a27.24,27.24,0,0,0,3.95-9.41h-3.05v-1.76H320v-5.54h1.85v5.54h2.49v1.76h-2.49v1.74q1.51,1.6,3.28,3.75l-1,1.54a37.77,37.77,0,0,0-2.24-3.25Zm3.11-9.72h5.32q.36-.56,1-1.68l.34.11a16.61,16.61,0,0,0-2-2.55l1-1a17.22,17.22,0,0,1,2.32,2.49l-1.09,1.06,1.26.36-.7,1.15h9.38v1.76h-3.25a8.7,8.7,0,0,1-2.46,4.14q3.08,1.12,5.6,2.32l-1.2,1.54q-2.8-1.37-6-2.63-2.72,1.65-8.79,2.66l-.73-1.76a30.78,30.78,0,0,0,7.17-1.76q-2.6-.9-5.07-1.57l2.1-2.94H325Zm3.58-12h1.23v3.44a13.64,13.64,0,0,1-.92,5.07,6,6,0,0,1-2.77,2.77l-.92-1.43a5.56,5.56,0,0,0,2.66-2.41,11.2,11.2,0,0,0,.73-4Zm4-2.91v9.3H331v-7.73h-3.75v7.73h-1.57v-9.3Zm-1.23,16.72q-.53.79-1.54,2.18a43.66,43.66,0,0,1,4.34,1.26,7.08,7.08,0,0,0,2.55-3.44Zm5.54-13.8h1.23v3.64a11.91,11.91,0,0,1-1,4.93,5.63,5.63,0,0,1-2.86,2.66l-.92-1.43a5.49,5.49,0,0,0,2.74-2.32,9.58,9.58,0,0,0,.78-3.84Zm4-2.91v9.3h-1.6v-7.73h-3.72v7.73H334v-9.3Zm-2.07,9.91a23.31,23.31,0,0,1,3,2.94l-1.15,1.15a19.24,19.24,0,0,0-2.83-3.14Z"/><path d="M354.13,1802.86h11.59a21.11,21.11,0,0,0-2.8-4.2l2-.73a24.54,24.54,0,0,1,2.91,4.93h10.7v2h-4.37A28.61,28.61,0,0,1,368,1816a36.84,36.84,0,0,0,11.17,6.24l-1.09,1.68a37.89,37.89,0,0,1-11.48-6.5,29.46,29.46,0,0,1-11.93,6.47l-1.06-1.76a27.59,27.59,0,0,0,11.59-6,25.64,25.64,0,0,1-6.75-11.26h-4.31Zm6.3,2a23.21,23.21,0,0,0,6.16,9.86,25.19,25.19,0,0,0,5.49-9.86Z"/><path d="M382.35,1814.79h11v-2.18h2.07v2.18h10.92v1.79h-9.1q3,2.88,9.46,4.62l-.87,1.76q-7.28-2.38-10.42-6.27v7.06h-2.07v-7.14q-2.69,3.78-10.25,6.55l-1.12-1.79q7-2.1,9.58-4.79h-9.21Zm11.9-11.65-1.43,1.88h12.68v1.62h-4.7a16.45,16.45,0,0,1-3.22,3.22q3.58.9,7.62,2.24l-1.18,1.54q-4-1.45-8.46-2.63a28.31,28.31,0,0,1-11.54,2.16l-1.09-1.65a34.45,34.45,0,0,0,10.08-1.18q-2.77-.7-5.82-1.29l1.06-1.23q.67-.73,1-1.18h-6.08V1805h7.39q1-1.26,1.82-2.41Zm11.37-2.8v3.95h-1.93V1802H385v2.3h-1.93v-4h10.39a22,22,0,0,0-1.23-1.9l2-.34a21.63,21.63,0,0,1,1.23,2.24Zm-7,6.3h-7.11q-.76.87-1.4,1.57,2.58.42,5.21,1.09A12,12,0,0,0,398.65,1806.64Z"/><path d="M416.57,1804.48a1.6,1.6,0,0,1,.48,1.18,1.63,1.63,0,0,1-.48,1.2,1.79,1.79,0,0,1-1.23.48,1.76,1.76,0,0,1-1.2-.48,1.63,1.63,0,0,1-.48-1.2,1.54,1.54,0,0,1,.48-1.18,1.63,1.63,0,0,1,1.2-.48A1.67,1.67,0,0,1,416.57,1804.48Zm0,10.25a1.6,1.6,0,0,1,.48,1.18,1.63,1.63,0,0,1-.48,1.2,1.79,1.79,0,0,1-1.23.48,1.76,1.76,0,0,1-1.2-.48,1.63,1.63,0,0,1-.48-1.2,1.54,1.54,0,0,1,.48-1.18,1.63,1.63,0,0,1,1.2-.48A1.67,1.67,0,0,1,416.57,1814.73Z"/><path d="M448.52,1800.09a20,20,0,0,1-3.89,1v2.18h3.92V1805h-3.92v1q1.9,1,4.23,2.58l-1,1.48q-2.21-1.79-3.22-2.46v2.72h-1.82v-3.84a22,22,0,0,1-4.45,4.59l-.7-1.79a16.11,16.11,0,0,0,4.54-4.26h-3.92v-1.74h4.54v-2q-1.76.17-3.67.17l-.56-1.65a28.74,28.74,0,0,0,9.1-1.23Zm-10.28,12.57h3.19l1.09-2.3,1.74.5-.81,1.79h5v1.68a12.2,12.2,0,0,1-2.69,5.12q1.34.92,2.27,1.62l-1.15,1.51a26.51,26.51,0,0,0-2.49-1.79,17.83,17.83,0,0,1-5.57,3.05l-.9-1.6a17.51,17.51,0,0,0,4.84-2.49,31.63,31.63,0,0,0-4-2l1.79-3.28h-2.27Zm4.31,1.79-1.34,2.55a20,20,0,0,1,3,1.48,11.2,11.2,0,0,0,2.46-4Zm7-1.88v-11.7h3.3a13.73,13.73,0,0,0,.9-2.77l2,.28a14.54,14.54,0,0,1-.84,2.49h6.41v11.7h-5.74q-.08.31-.28,1.23h1.68v6.89q0,.92.78.92h2.44a2.22,2.22,0,0,0,.92-.17q.48-.28.64-1.9l1.54.48q-.31,2.38-.9,2.88a3.36,3.36,0,0,1-1.79.42H457.2q-2,0-2-2.3v-6.92a19.32,19.32,0,0,1-5.88,9.88l-1.43-1.26a17.72,17.72,0,0,0,5.85-10.16Zm4.93-10h-3.14V1806h3.14Zm-3.14,5.12v3.11H454q.22-1.51.34-3.11Zm8.15,3.11v-3.11h-3.33q-.11,1.6-.34,3.11Zm0-4.82v-3.42h-3.25V1806Zm1.88,8.88a40.86,40.86,0,0,1,1.46,4l-1.23.45-.31-1a13.9,13.9,0,0,1-3.61,1l-.42-1.26a20.59,20.59,0,0,0,1.82-4.79l1.46.45a18.61,18.61,0,0,1-1.74,4.12,9.28,9.28,0,0,0,2.13-.67q-.36-1.06-.76-2Z"/><path d="M466,1799.61h24.75v1.9H466Zm6.61,24.05-.5-1.85,2,.08q1.06,0,1.06-1.18v-14.36h-5.57v17.47h-1.88v-19.38H477v16.69q0,2.52-2.32,2.52Zm-.76-14.7a48.25,48.25,0,0,1,2.49,7.08l-1.62.7a51.09,51.09,0,0,0-2.38-7.17Zm12.94,14.67-.5-1.85,1.82.08a.9.9,0,0,0,1-1v-14.5h-5.57v17.44h-1.88v-19.35H489v16.8q0,2.38-2.3,2.38Zm-.87-14.7a59.23,59.23,0,0,1,2.55,7.22l-1.62.7a50.58,50.58,0,0,0-2.44-7.31Z"/><path d="M499.65,1798.13q-.42,3-.84,5.35h4.73v1.15a31.1,31.1,0,0,1-2.66,11.73,41.91,41.91,0,0,1,3.3,3.22l-1.34,1.57q-1.32-1.48-2.91-3a21.39,21.39,0,0,1-5,5.74l-1.4-1.71a18.91,18.91,0,0,0,4.87-5.4q-1.85-1.68-4-3.44a79.33,79.33,0,0,0,2-8h-2.74v-1.93h3.14q.59-3.42.9-5.52Zm2,7.28h-3.19a60.21,60.21,0,0,1-1.88,7.36q1.51,1.18,2.77,2.27A26.86,26.86,0,0,0,501.63,1805.41Zm5.54,13.1v5.26h-2V1808H517.9v13.08a2.31,2.31,0,0,1-2.6,2.63h-2.6l-.5-1.93,2.46.08a1.08,1.08,0,0,0,1.2-1.23v-2.1ZM506,1799.16H517V1806H506Zm9.83,13.33v-2.6h-8.68v2.6Zm-8.68,1.79v2.44h8.68v-2.44Zm7.81-10.05v-3.3h-7v3.3Z"/><path d="M530.92,1806.75h5.85v12.43q1.74-1.45,3.25-2.88l.56,2.13a41.91,41.91,0,0,1-5.6,4.4l-.78-1.79a1.8,1.8,0,0,0,.62-1.26v-11.09h-3.89Zm3.14-8.2a36.84,36.84,0,0,1,4.68,4.26l-1.37,1.4a29.4,29.4,0,0,0-4.7-4.34Zm6.8,11.48h13.33v1.85a16.2,16.2,0,0,1-4.4,6.8,31.54,31.54,0,0,0,7,3.47l-1.09,1.74a31,31,0,0,1-7.34-4,26.78,26.78,0,0,1-8.29,4l-1.12-1.71a26.87,26.87,0,0,0,7.81-3.61,15.2,15.2,0,0,1-4.34-6.58h-1.54Zm2.16-10.81h9.41v6a1,1,0,0,0,1.09,1.06h2.58v1.85H553q-2.58,0-2.58-2.49v-4.56H545v1q0,4.43-4.31,6.89l-1.34-1.54q3.67-1.82,3.67-5.12Zm1.29,12.77a12.84,12.84,0,0,0,3.86,5.43,15.18,15.18,0,0,0,4-5.43Z"/><path d="M558.92,1806.69h6v12.46q2-1.65,3.3-2.91l.5,2.07a39.34,39.34,0,0,1-5.6,4.48l-.78-1.82a1.47,1.47,0,0,0,.64-1.18v-11.17h-4.12Zm3.28-8.29a31.75,31.75,0,0,1,4.79,4.31l-1.37,1.4a29.36,29.36,0,0,0-4.82-4.34Zm5.49,8.12h7.59v-8.43h2.07v8.43h7.2v2h-7.2v15.32h-2.07v-15.32h-7.59Z"/><path d="M593.89,1804.48a1.6,1.6,0,0,1,.48,1.18,1.63,1.63,0,0,1-.48,1.2,1.79,1.79,0,0,1-1.23.48,1.76,1.76,0,0,1-1.21-.48,1.64,1.64,0,0,1-.48-1.2,1.54,1.54,0,0,1,.48-1.18,1.63,1.63,0,0,1,1.21-.48A1.67,1.67,0,0,1,593.89,1804.48Zm0,10.25a1.6,1.6,0,0,1,.48,1.18,1.63,1.63,0,0,1-.48,1.2,1.79,1.79,0,0,1-1.23.48,1.76,1.76,0,0,1-1.21-.48,1.64,1.64,0,0,1-.48-1.2,1.55,1.55,0,0,1,.48-1.18,1.64,1.64,0,0,1,1.21-.48A1.67,1.67,0,0,1,593.89,1814.73Z"/><path d="M615.82,1799.89h11.09v1.85h-9.21v18.09h9.13v1.93h-11Zm4.06,4.26q1.62,2.32,3.08,4.73a36.19,36.19,0,0,0,1.51-5.6l1.85.28a40.68,40.68,0,0,1-2.18,7.31q1.93,3.39,3.22,6.13l-1.37,1.37q-1.18-2.6-2.77-5.49a23.57,23.57,0,0,1-3.78,5.38l-1.18-1.46a22.35,22.35,0,0,0,3.84-5.82q-1.6-2.74-3.53-5.54Zm14.25,2.32a48.06,48.06,0,0,1-.31,5.57,20,20,0,0,0,6.69,10.08l-1.34,1.57a22.46,22.46,0,0,1-5.91-8.37l-.08.39a13.87,13.87,0,0,1-5.71,8.12l-1.29-1.54a13.18,13.18,0,0,0,5.07-6.92,34,34,0,0,0,1-8.9Zm-2.07-8q-.31,2.3-.7,3.95h8.06v1.29a62.45,62.45,0,0,1-1.76,7.08l-1.93-.56a34.51,34.51,0,0,0,1.65-5.88h-6.5a18.76,18.76,0,0,1-2.77,5.85l-1.62-1.15q2.8-4,3.58-10.89Z"/><path d="M644.1,1799.27h9v1.57q-1.37,3.89-3.19,8a13.15,13.15,0,0,1,3,6.61,3.58,3.58,0,0,1-.87,2.63,7.28,7.28,0,0,1-4.29,1l-.64-2c.56.08.92.11,1.06.11a4.59,4.59,0,0,0,2.18-.48,1.49,1.49,0,0,0,.53-1.29q0-2.8-3-6.3a75.16,75.16,0,0,0,3.16-8h-5v22.74h-2Zm23.24.42v24h-2v-2.18h-8.65v2.13h-2v-24Zm-10.61,9.88h8.65v-7.92h-8.65Zm0,10h8.65v-8.12h-8.65Z"/><path d="M672.15,1799.78h23v1.93h-7.53v18.9h8.43v2H671.26v-2h8.37v-18.9h-7.47Zm2.29,6.1a70.53,70.53,0,0,1,3.61,10.72l-1.76.48a77.23,77.23,0,0,0-3.61-10.61Zm7.17,14.73h4v-18.9h-4ZM694.44,1806a53,53,0,0,1-3.72,11.17l-1.74-.67a53.24,53.24,0,0,0,3.67-10.95Z"/><path d="M699.15,1805.57h3.25v-7.34h2v7.34h3.08v2h-3.08v9.21q1.6-.59,3.61-1.54v2a52,52,0,0,1-8.76,3.19l-.5-2q2-.45,3.64-1v-9.91h-3.25Zm16.13,10.36h-4.06v1.79h-1.9v-15.23h6v-4.26h2v4.26h6v15.12h-1.9v-1.68h-4.14v7.84h-2Zm0-11.62h-4.06v3.95h4.06Zm-4.06,5.77v4h4.06v-4Zm10.16-1.82v-3.95h-4.14v3.95Zm-4.14,5.85h4.14v-4h-4.14Z"/><path d="M738.12,1799.81h21.81v2h-4.68v7.42h6.13v1.93h-6.13v12.4h-2v-12.4h-8.09a23.43,23.43,0,0,1-1.62,7.17,11.36,11.36,0,0,1-5.29,5.46l-1.09-1.74a10.58,10.58,0,0,0,4.76-5.12,23.84,23.84,0,0,0,1.2-5.77h-6.47v-1.93h6.58l0-1v-6.44h-5.1Zm7.17,2v6.94l0,.48h8v-7.42Z"/><path d="M766.23,1806.72l2.21-7.78,2,.34-1.6,5.52h4.9a64.94,64.94,0,0,0,1.34-6.86l2,.25q-.5,3.3-1.32,6.61h13.1v1.93H775.28q-.59,2-1.06,3.19h11.45v1.74a14.26,14.26,0,0,1-4.56,6.55,44.55,44.55,0,0,0,8.29,3.7l-1,1.88a45.18,45.18,0,0,1-8.9-4.28,40.74,40.74,0,0,1-8.54,4.4l-1.06-1.88a38.39,38.39,0,0,0,7.84-3.78,15.14,15.14,0,0,1-4.65-5.46,28.91,28.91,0,0,1-7.87,10.53l-1-1.85q6.11-5.35,9-14.73Zm8.32,5a15,15,0,0,0,4.79,5.29,13.29,13.29,0,0,0,4.28-5.29Zm7.28-13.61a33.69,33.69,0,0,1,5,4.62l-1.43,1.43a31.2,31.2,0,0,0-4.93-4.73Z"/><path d="M799.22,1804.48a1.59,1.59,0,0,1,.48,1.18,1.63,1.63,0,0,1-.48,1.2,1.79,1.79,0,0,1-1.23.48,1.76,1.76,0,0,1-1.2-.48,1.63,1.63,0,0,1-.48-1.2,1.54,1.54,0,0,1,.48-1.18,1.63,1.63,0,0,1,1.2-.48A1.66,1.66,0,0,1,799.22,1804.48Zm0,10.25a1.6,1.6,0,0,1,.48,1.18,1.63,1.63,0,0,1-.48,1.2,1.79,1.79,0,0,1-1.23.48,1.76,1.76,0,0,1-1.2-.48,1.63,1.63,0,0,1-.48-1.2,1.54,1.54,0,0,1,.48-1.18,1.64,1.64,0,0,1,1.2-.48A1.67,1.67,0,0,1,799.22,1814.73Z"/><path d="M821.14,1799.89h11.09v1.85H823v18.09h9.13v1.93h-11Zm4.06,4.26q1.62,2.32,3.08,4.73a36.08,36.08,0,0,0,1.51-5.6l1.85.28a40.52,40.52,0,0,1-2.18,7.31q1.93,3.39,3.22,6.13l-1.37,1.37q-1.17-2.6-2.77-5.49a23.6,23.6,0,0,1-3.78,5.38l-1.18-1.46a22.35,22.35,0,0,0,3.84-5.82q-1.6-2.74-3.53-5.54Zm14.25,2.32a48.06,48.06,0,0,1-.31,5.57,20,20,0,0,0,6.69,10.08l-1.34,1.57a22.44,22.44,0,0,1-5.91-8.37l-.08.39a13.87,13.87,0,0,1-5.71,8.12l-1.29-1.54a13.18,13.18,0,0,0,5.07-6.92,34,34,0,0,0,1-8.9Zm-2.07-8q-.31,2.3-.7,3.95h8.06v1.29a62.45,62.45,0,0,1-1.76,7.08l-1.93-.56a34.42,34.42,0,0,0,1.65-5.88h-6.5a18.74,18.74,0,0,1-2.77,5.85l-1.62-1.15q2.8-4,3.58-10.89Z"/><path d="M849.42,1799.27h9v1.57q-1.37,3.89-3.19,8a13.16,13.16,0,0,1,3,6.61,3.58,3.58,0,0,1-.87,2.63,7.27,7.27,0,0,1-4.28,1l-.64-2q.84.11,1.06.11a4.59,4.59,0,0,0,2.18-.48,1.49,1.49,0,0,0,.53-1.29q0-2.8-3-6.3a75.59,75.59,0,0,0,3.16-8h-5v22.74h-2Zm23.24.42v24h-2v-2.18H862v2.13h-2v-24ZM862,1809.58h8.65v-7.92H862Zm0,10h8.65v-8.12H862Z"/><path d="M877.48,1799.78h23v1.93H893v18.9h8.43v2H876.58v-2H885v-18.9h-7.48Zm2.3,6.1a70.54,70.54,0,0,1,3.61,10.72l-1.76.48a77.23,77.23,0,0,0-3.61-10.61Zm7.17,14.73h4v-18.9h-4ZM899.77,1806a53,53,0,0,1-3.72,11.17l-1.74-.67A53.12,53.12,0,0,0,898,1805.6Z"/><path d="M904.47,1805.57h3.25v-7.34h2v7.34h3.08v2h-3.08v9.21q1.6-.59,3.61-1.54v2a52,52,0,0,1-8.76,3.19l-.5-2q2-.45,3.64-1v-9.91h-3.25Zm16.13,10.36h-4.06v1.79h-1.9v-15.23h6v-4.26h2v4.26h6v15.12h-1.9v-1.68h-4.14v7.84h-2Zm0-11.62h-4.06v3.95h4.06Zm-4.06,5.77v4h4.06v-4Zm10.16-1.82v-3.95h-4.14v3.95Zm-4.14,5.85h4.14v-4h-4.14Z"/><path d="M457.69,1861.36a14.3,14.3,0,0,1,.73,4.37q0,3.3-.9,4.59-1,1.45-4.65,1.46h-1l-.67-1.76h1.34q2.49-.06,3.11-.76a5.86,5.86,0,0,0,.76-3.53q-.06-.9-.11-1.4a37.57,37.57,0,0,1-12.29,6l-1-1.74q8.4-2.46,12.91-6.19a16.2,16.2,0,0,0-.81-2.1,31,31,0,0,1-10.75,5l-1-1.74q7.14-1.87,10.89-4.76a10.33,10.33,0,0,0-1.12-1.46l-.62.31a52.52,52.52,0,0,1-7.62,2.69l-1-1.65a41.22,41.22,0,0,0,7.28-2.27q1.88-.84,2.88-1.4h-7.42v-1.88H463.4v1.88H457q-1.43,1-2.3,1.48a12.62,12.62,0,0,1,2.35,3.28,26.36,26.36,0,0,0,7.42-3.39l1.37,1.37a25.63,25.63,0,0,1-4.82,2.49,17.57,17.57,0,0,0,6.44,8.43l-1.43,1.65a20.9,20.9,0,0,1-6.64-9.49Zm-2.35-15.43a24,24,0,0,1,1,2.66h10.53v4.87h-2v-3H445.17v3h-2v-4.87h11.09a18.91,18.91,0,0,0-1-2.3Z"/><path d="M494.45,1847.39v24.42h-2v-1.12H473.56v1.12h-2v-24.42Zm-20.89,21.5h18.87v-19.66H473.56Zm2-12.29h15v1.79H486v5.74q0,1,.9,1H488a1.46,1.46,0,0,0,.9-.25q.48-.28.64-2.91l1.68.56q-.34,3.16-.9,3.72a3.14,3.14,0,0,1-1.93.53h-2a2,2,0,0,1-1.6-.62,2.38,2.38,0,0,1-.56-1.62v-6.16h-2.66a12,12,0,0,1-1.62,5.35,9.6,9.6,0,0,1-4.4,3.42l-1-1.62a7.82,7.82,0,0,0,3.81-2.86,10.45,10.45,0,0,0,1.34-4.28h-4.14Zm1.6-4.79h11.79v1.79H477.12Z"/><path d="M510.08,1850h-9.74v-2h21.59v2h-9.77v18.54h11v2H498.85v-2h11.23Z"/><path d="M529.59,1856.09a33.31,33.31,0,0,1-2.94,3.36l-.67-2.13a30.18,30.18,0,0,0,6.61-11.28l1.9.9a34.52,34.52,0,0,1-2.83,6.13v18.76h-2.07Zm9-4a32.92,32.92,0,0,1-4.45,7.08l-1.43-1.71a34.68,34.68,0,0,0,6.08-11.48l2,.45q-.73,2.07-1.34,3.67h12.1v2h-9.41v4.62h8.18v2h-8.18v4.73h8.34v1.93h-8.34v6.52h-2v-19.77Z"/><path d="M557.73,1853.29h18.54v1.85H564.62a25.5,25.5,0,0,1-3.81,4.26q6.91-.31,11.84-.64-1-1-2.44-2.3l1.29-1.23a44.31,44.31,0,0,1,5.8,5.68l-1.46,1.48a21.71,21.71,0,0,0-1.71-2.07q-3.78.28-6.1.39v3.14H577v1.88H568v3.5h11.12v1.9h-24.3v-1.9H566v-3.5h-8.88v-1.88H566v-3l-8.06.36-.45-1.74.42-.2q1.74-.76,4.45-4.12h-4.59Zm9.16-7.42q.62,1.15,1.34,2.88H578.7v5.43h-2v-3.53H557.34v3.53h-2v-5.43H566a19.25,19.25,0,0,0-1.4-2.49Z"/><path d="M602.59,1855.87v-7.64h2v9.6H596v10.28h7.9v-7.64h2v11.14h-2V1870H586.07v1.57h-2v-11.14h2v7.64H594v-10.28H585.4v-9.6h2v7.64H594v-9.77H596v9.77Z"/><path d="M621.4,1859.23v12.15h-2V1870h-5.91v1.43h-2v-12.15Zm-7.87,8.82h5.91v-6.89h-5.91Zm1.74-20.75H630.7v9.16H615.27Zm13.41,7.25v-5.35h-11.4v5.35Zm5.74,4.68v12.15h-2V1870h-6.13v1.43h-2v-12.15Zm-8.15,8.82h6.13v-6.89h-6.13Z"/></g><rect class="cls-2" x="112.99" y="1505.85" width="852.01" height="120.2" rx="60.1" ry="60.1"/><rect class="cls-3" x="607.79" y="1722.72" width="210.15" height="26"/><path d="M701.38,1710.85l-3.84-2.3L713,1683.65l3.78,2.37Zm29.69,27.58H726.6v-25.28H716.49l-4.1,25.41-4.42-.7,4-24.7h-6v-4.48h25.15Zm6.78-28.16-16.19-24.51,3.71-2.5,16.19,24.57Z"/><path d="M788,1692.74H746.83v-4.48h18.37v-6.59h4.48v6.59H788Zm-18.56,45.69h-4.48v-10.75H746.83v-4.48h18.11V1723l4.42-6.34H752.52v-4.48H778l-7.74,11h17.66v4.48h-18.5Zm12.93-30H752.71v-12.54h29.63ZM757.19,1704h20.67v-3.58H757.19Z"/><path d="M646.21,1720.87v-1.33c0-11.23,8.95-19.38,21.27-19.38h5.94L665,1691.5l3.22-3.33,13.5,14.28-13.51,14.13-3.23-3.27,8.46-8.58h-5.92c-9.84,0-16.71,6.09-16.71,14.81v1.33Z"/><path d="M647.21,1719.87v-.33c0-10.65,8.53-18.38,20.28-18.38h8.31l-9.45-9.66,1.82-1.88,12.13,12.83-12.14,12.7-1.81-1.84,9.45-9.58h-8.31c-10.43,0-17.71,6.5-17.71,15.81v.33Z"/><polygon points="632.92 1733.21 632.92 1698.26 647.93 1698.26 647.93 1702.83 637.49 1702.83 637.49 1728.65 669 1728.65 669 1718.2 673.57 1718.2 673.57 1733.21 632.92 1733.21"/><polygon points="633.92 1732.21 633.92 1699.26 646.93 1699.26 646.93 1701.83 636.49 1701.83 636.49 1729.65 670 1729.65 670 1719.2 672.57 1719.2 672.57 1732.21 633.92 1732.21"/><rect class="cls-3" x="233.82" y="1722.29" width="331.97" height="26"/><path d="M373.22,1738.13h-4.48v-15.29H347.68v15.29H343.2v-15.29h-6.66v-4.48h6.66v-22.21h13v-6.85H338.28v-4.48h40.06v4.48H360.67v6.85h12.54v22.21h6.85v4.48h-6.85ZM347.68,1707h8.51v-6.33h-8.51Zm0,11.39h8.51v-6.91h-8.51Zm21.05-17.73h-8.06V1707h8.06Zm-8.06,17.73h8.06v-6.91h-8.06Z"/><path d="M387.43,1736l-2.3-3.84,5.63-3.33v-23.68H383.4v-4.48h11.84v25.47l4-2.43,2.3,3.84Zm5.7-41.66h-4.48v-9.66h4.48Zm34.49,7.68h-8.83c1.92,11.52,4.74,25.09,8.13,34.94l-4.22,1.41a200.93,200.93,0,0,1-6.59-25.92v2.18h-6.34v14.66l6.46-.58.38,4.48-16.83,1.47-.38-4.48,5.89-.51v-15h-5.12v-4.48h15.49l-1.47-8.13h-15.1v-4.48h14.4c-1-6.78-1.66-12.54-1.86-16l4.48-.26c.19,3.2.9,9.15,2,16.25h9.54Zm-1.86-9.22h-4.48v-9.47h4.48Z"/><path d="M475.87,1708.76h-43.2v-4.48h43.2Z"/><path d="M480.23,1720.47l-.83-4.42,14.85-2.69.77,4.42Zm13.69-22.85H479.84v-4.48h14.08Zm6.21,7.81-4.35-1,5.7-23.61,4.35,1.09-2.56,10.5h18.62v11.33h-4.48v-6.85H512v10.5c1.47,8.77,7.94,20.67,13.12,26.49l-3.39,2.94c-4.16-4.67-9.09-13-12-20.93a70,70,0,0,1-14,21.37l-3.14-3.2c7.36-7.36,14.27-19.9,14.91-26.88v-10.3h-5.31Z"/><path d="M291.06,1732.73a21.45,21.45,0,1,1,0-42.9,21.16,21.16,0,0,1,6.66,1.07l1.17.38-2.23,3.88-.76-.23a16.88,16.88,0,0,0-4.83-.7,17,17,0,1,0,17,17,16.79,16.79,0,0,0-.57-4.34l-1,3.71-4.26-1.14,3-11.23,11.23,3-1.14,4.26-4-1.07a21.1,21.1,0,0,1,1.12,6.81A21.47,21.47,0,0,1,291.06,1732.73Z"/></svg>