<svg id="图层_1" data-name="图层 1" xmlns="http://www.w3.org/2000/svg" xmlns:xlink="http://www.w3.org/1999/xlink" viewBox="0 0 1080 1920"><defs><style>.cls-1,.cls-2{fill:#ffc871;}.cls-2,.cls-4{opacity:0.6;}.cls-3,.cls-4{fill:#b452cc;}.cls-5{fill:#ff8f8f;}.cls-6{fill:#ff6161;}.cls-7{opacity:0.4;fill:url(#未命名的渐变_75);}</style><linearGradient id="未命名的渐变_75" x1="831.18" y1="160.01" x2="868.17" y2="135.94" gradientUnits="userSpaceOnUse"><stop offset="0" stop-color="#fff"/><stop offset="0.06" stop-color="#fff" stop-opacity="0.86"/><stop offset="0.16" stop-color="#fff" stop-opacity="0.66"/><stop offset="0.26" stop-color="#fff" stop-opacity="0.49"/><stop offset="0.37" stop-color="#fff" stop-opacity="0.34"/><stop offset="0.48" stop-color="#fff" stop-opacity="0.21"/><stop offset="0.59" stop-color="#fff" stop-opacity="0.12"/><stop offset="0.71" stop-color="#fff" stop-opacity="0.05"/><stop offset="0.84" stop-color="#fff" stop-opacity="0.01"/><stop offset="1" stop-color="#fff" stop-opacity="0"/></linearGradient></defs><title>layer1</title><circle class="cls-1" cx="966.07" cy="266.86" r="8.25"/><circle class="cls-1" cx="912.74" cy="206.19" r="8.25"/><circle class="cls-1" cx="744.74" cy="121.02" r="5.83"/><circle class="cls-1" cx="467.4" cy="126.85" r="5.83"/><circle class="cls-1" cx="636.4" cy="67.85" r="10.38"/><circle class="cls-2" cx="350.4" cy="151.65" r="3.27"/><circle class="cls-1" cx="687.07" cy="365.69" r="8.25"/><circle class="cls-3" cx="183.86" cy="354.58" r="5.83"/><circle class="cls-4" cx="223.77" cy="290.44" r="5.83"/><circle class="cls-3" cx="125.62" cy="198.77" r="5.83"/><circle class="cls-3" cx="315.62" cy="76.1" r="5.83"/><circle class="cls-3" cx="579.95" cy="123.44" r="5.83"/><circle class="cls-3" cx="716.29" cy="88.1" r="5.83"/><circle class="cls-3" cx="833" cy="529.56" r="5.83"/><circle class="cls-5" cx="290" cy="504.56" r="5.83"/><circle class="cls-6" cx="584.33" cy="239.4" r="5.83"/><path class="cls-7" d="M868,137.18c2-1.3,1-2.93-1-1.69-4.07,2.42-25.34,14.71-38.89,23-4.88,3-1.73,8.5,2.93,5.2C837.69,159,868,137.18,868,137.18Z"/></svg>