<svg id="图层_1" data-name="图层 1" xmlns="http://www.w3.org/2000/svg" xmlns:xlink="http://www.w3.org/1999/xlink" viewBox="0 0 1080 1920"><defs><style>.cls-1{fill:url(#未命名的渐变_75);}.cls-2,.cls-3{opacity:0.6;}.cls-2{fill:url(#未命名的渐变_75-2);}.cls-3{fill:url(#未命名的渐变_75-3);}</style><linearGradient id="未命名的渐变_75" x1="130.56" y1="281.37" x2="201.67" y2="235.09" gradientUnits="userSpaceOnUse"><stop offset="0" stop-color="#fff"/><stop offset="0.06" stop-color="#fff" stop-opacity="0.86"/><stop offset="0.16" stop-color="#fff" stop-opacity="0.66"/><stop offset="0.26" stop-color="#fff" stop-opacity="0.49"/><stop offset="0.37" stop-color="#fff" stop-opacity="0.34"/><stop offset="0.48" stop-color="#fff" stop-opacity="0.21"/><stop offset="0.59" stop-color="#fff" stop-opacity="0.12"/><stop offset="0.71" stop-color="#fff" stop-opacity="0.05"/><stop offset="0.84" stop-color="#fff" stop-opacity="0.01"/><stop offset="1" stop-color="#fff" stop-opacity="0"/></linearGradient><linearGradient id="未命名的渐变_75-2" x1="988.94" y1="358.2" x2="1032.32" y2="329.97" xlink:href="#未命名的渐变_75"/><linearGradient id="未命名的渐变_75-3" x1="381.71" y1="116.65" x2="418.71" y2="92.57" xlink:href="#未命名的渐变_75"/></defs><title>layer2</title><path class="cls-1" d="M201.25,237.48c3.88-2.5,2-5.62-2-3.25-7.83,4.65-48.72,28.28-74.75,44.25-9.37,5.75-3.33,16.33,5.63,10C143.07,279.33,201.25,237.48,201.25,237.48Z"/><path class="cls-2" d="M1032.06,331.43c2.36-1.52,1.22-3.43-1.22-2-4.78,2.84-29.72,17.25-45.6,27-5.72,3.51-2,10,3.43,6.1C996.57,357,1032.06,331.43,1032.06,331.43Z"/><path class="cls-3" d="M418.49,93.81c2-1.3,1-2.93-1-1.69-4.07,2.42-25.34,14.71-38.89,23-4.88,3-1.73,8.5,2.93,5.2C388.22,115.59,418.49,93.81,418.49,93.81Z"/></svg>