<svg id="图层_1" data-name="图层 1" xmlns="http://www.w3.org/2000/svg" xmlns:xlink="http://www.w3.org/1999/xlink" viewBox="0 0 1080 1920"><defs><style>.cls-1{fill:#4fb2ff;}.cls-2{fill:#fff;}.cls-3{fill:url(#未命名的渐变_3);}</style><linearGradient id="未命名的渐变_3" x1="588.14" y1="220.75" x2="639.52" y2="169.37" gradientUnits="userSpaceOnUse"><stop offset="0" stop-color="#a0d6ff"/><stop offset="1" stop-color="#4fb2ff"/></linearGradient></defs><title>layer</title><path class="cls-1" d="M347.14,160.63l-.2,68.6H334.11l-19.5-26.36q-2.35-3.09-4.7-6.47t-4.41-6.17c-1.37-1.86-2.55-3.43-3.33-4.61l-1.27-1.86h-.1v45.48H287.16V160.73H300l19.9,26.76c1.18,1.57,2.55,3.43,4.12,5.49s3,4,4.41,6,2.55,3.63,3.53,5l1.47,2h.1V160.63Z"/><path class="cls-1" d="M411.82,181l-.29.39a19.07,19.07,0,0,0-7.45-6.08,22.78,22.78,0,0,0-9.8-2.25,23.18,23.18,0,0,0-8.82,1.67,19.28,19.28,0,0,0-6.76,4.61,19.84,19.84,0,0,0-4.31,7.06,26.2,26.2,0,0,0-1.47,8.92,24.73,24.73,0,0,0,1.67,9.11,19.2,19.2,0,0,0,11.17,11.37,22.36,22.36,0,0,0,8.53,1.57,22,22,0,0,0,10.88-2.84,18.81,18.81,0,0,0,7.55-7.35l13.72,3.63A36.19,36.19,0,0,1,421,219a34.61,34.61,0,0,1-7.35,6.27,32.51,32.51,0,0,1-9,4,35.3,35.3,0,0,1-10.29,1.47,38,38,0,0,1-13.82-2.55,35,35,0,0,1-11.27-7.35,34.16,34.16,0,0,1-7.64-11.37,38.56,38.56,0,0,1,.1-28.81,34.17,34.17,0,0,1,7.64-11.37A35.48,35.48,0,0,1,380.75,162a37.78,37.78,0,0,1,23.62-1.37,35.62,35.62,0,0,1,8.62,3.63,34.17,34.17,0,0,1,12.74,13.13Z"/><path class="cls-1" d="M495.22,160.63l-.1,38.91a40.07,40.07,0,0,1-2.06,13.33,26.45,26.45,0,0,1-5.88,9.8,25,25,0,0,1-9.31,6,39.27,39.27,0,0,1-24.5,0,25,25,0,0,1-9.31-6,26.45,26.45,0,0,1-5.88-9.8,40.67,40.67,0,0,1-2.06-13.43V160.63h13.62v38.61c0,6.37,1.37,11.07,4,14.11s6.66,4.51,12,4.51,9.11-1.47,11.76-4.51,4-7.74,4-14.11V160.63Z"/><path class="cls-1" d="M567,160.63v68.6H553.33V200.91h-29.7v28.32H510v-68.6h13.62v27.44h29.7V160.63Z"/><path class="cls-1" d="M578.42,195.52a36.7,36.7,0,0,1,2.84-14.41,34.17,34.17,0,0,1,7.64-11.37,35.48,35.48,0,0,1,11.37-7.35,37.4,37.4,0,0,1,27.64,0,35.48,35.48,0,0,1,11.37,7.35A33.74,33.74,0,0,1,646.92,181a38.55,38.55,0,0,1,.1,28.81,33.76,33.76,0,0,1-7.65,11.27A35.47,35.47,0,0,1,628,228.45a38.74,38.74,0,0,1-27.64,0,35,35,0,0,1-11.27-7.35,34.17,34.17,0,0,1-7.64-11.37,36.64,36.64,0,0,1-2.74-14.41Zm14.5-.2a24.56,24.56,0,0,0,1.57,9,21.55,21.55,0,0,0,4.41,7.06,19,19,0,0,0,6.76,4.51,22.51,22.51,0,0,0,8.62,1.57,23,23,0,0,0,8.72-1.67,19.29,19.29,0,0,0,6.76-4.61,21.56,21.56,0,0,0,4.41-7.06,27,27,0,0,0,0-18.13,21.56,21.56,0,0,0-4.41-7.06,19.28,19.28,0,0,0-6.76-4.61,23.8,23.8,0,0,0-17.25-.1,19,19,0,0,0-6.76,4.51,21.55,21.55,0,0,0-4.41,7.06,24.72,24.72,0,0,0-1.57,9.11Z"/><path class="cls-1" d="M728.75,160.63l-.49,68.6H714.84V207.87c0-3.63,0-7,.1-9.9s.2-5.49.2-7.64-.1-3.82,0-5l.1-1.76h-.1l-.78,1.37c-.49.88-1.08,2-1.76,3.14l-2.06,3.53c-.69,1.18-1.18,2-1.47,2.45l-10.68,18.43h-7.06L680.63,194c-.29-.49-.78-1.27-1.47-2.45l-2.06-3.53c-.69-1.18-1.27-2.25-1.76-3.14l-.78-1.37h-.1l.1,1.76c.1,1.18.1,2.84.2,5s.2,4.7.29,7.64.1,6.17.1,9.8v21.46H661.71v-68.6h12.84l14.21,23.52c1.27,2.16,2.35,3.92,3.14,5.29s1.47,2.45,2,3.23.79,1.37,1,1.67l.29.49h.1l.29-.49c.2-.29.49-.88,1-1.67s1.18-1.86,2-3.23,1.86-3.14,3.14-5.29l14.31-23.52Z"/><path class="cls-1" d="M794.12,216.49v12.74H745v-68.6h48.51v12.74H758.64V188h27.54v12H758.64v16.56Z"/><path class="cls-2" d="M312.12,276.64h43.2v12.6h-14a97,97,0,0,1,3.84,10.8L362,287.8l9.24,12.72L353,313.11l23.4,28-12.6,11.52-16-20.64A78.14,78.14,0,0,1,340,359.07l-22.56-4.92,5-3a86.12,86.12,0,0,0,4.2-12.6l-26.16,16.32-7.92-11.76,36.24-21.48v-.48c0-1.08,0-2.28-.12-3.48l-29.16,17.64L292.32,324l34.32-19.68-.72-3-25.68,14.52-7.08-12L321,289.24h-8.88Zm-19.68,9.6V258.52h31.08V250h20.4v8.52H375v27.72H358.68V273.16H308.76v13.08Z"/><path class="cls-2" d="M396.12,252.16H478.8V356.43H396.12Zm19.32,17v70H459.6v-70Zm2.28,22.44h39.36v14.76h-4.56v15h1.2l3.48-3.72v18.48H437.4V306.39H435l-3,30.36-15-1.32,3.24-29h-2.52Zm3.12-18.24h32.88v13.92H420.84Z"/><path class="cls-2" d="M503.76,256.72h72.48v16.92H550.32v62.52H580.8V353H499.2v-16.8h30.48V273.64H503.76Z"/><path class="cls-2" d="M621.6,248.32l16,4L628,270.16v86H609.72V304.11l-5.4,10-10.56-14.16Zm30.12,35.52h-2.16l-3.72,12.84H629.16l13.68-47h16.68l-5,17.16H690v17H670.2v10.08h17.28v16.92H670.2V320h17.28v16.92H670.2v19.32H651.72Z"/><path class="cls-2" d="M703.32,287.68V257.92h32.52v-8.16H757v8.16h32.52V287.8H774.23V272.08H718.56v15.6ZM720.24,277h52.32v12.72H744l-6.24,11.64h20.88l-4.92-9H770l9.84,18.84a2.08,2.08,0,0,1-1.8,2.64H756.71v6.72h25.92v14.64H756.71v6.24h32.4v15H703.56v-15H736v-6.24h-25.8V320.55H736v-6.72H716a1.91,1.91,0,0,1-1.56-2.76l11.28-21.36h-5.52Z"/><path class="cls-2" d="M289.11,414.73H284l-4,10.7h-11.7V475h-15.2v-43.6l-4.6,8.5-8.8-11.8,23.2-43,13.3,3.3-7.9,14.7v13.5l11.3-30.4h15l-5.3,14.3H321v24.9h-13.3v-10.7h-3.2V475h-19.6l4.2-5.7ZM273,431.33h13.6l-1.1,33.3h-13.7Zm34.4,0h13.5v33.3h-13.5Z"/><path class="cls-2" d="M336.7,454.93V446H332v-14.8h18.6v16.9c0,6.7,4,13.6,13.5,13.6h44.2v13.5h-46.9c-8.4,0-14-2.8-17.2-8.3l-7.2,7.5L328,463Zm-3.6-64.6h17.6v15.2H333.1Zm0,20.5h17.6v15.3H333.1Zm24.5-19.2,45.5-1.8,1.2,12.2-15.3.6v7.9h17.9v12.1H389v6.2h14.3v29.6h-44.5v-29.6H373v-6.2h-18.3v-12.1H373v-7.2l-14.4.5Zm16.8,48.8V447h13.1v-6.6Z"/><path class="cls-2" d="M433.1,422.23l-9.7,8-10.3-12.9,41.1-32.1,40.9,32.1-10.3,12.9-10-8.2v10.3H433.1Zm-7.4,14.5h56.6v38.4H425.7ZM437,419h34.1L454,405Zm4.7,31.4v10.4h24.6v-10.4Z"/><path class="cls-2" d="M534.2,418.73v56.4H502.9v-76.9h8.2l2.2-11.9h14.4l-2.1,11.9h8.6v10.9l11.5-21.9,12.8,3.2-3.8,7.3h22v77.4h-19l3.6-5.3v-58H547.5L541.2,424Zm-18-5.7v15.4h4.7V413Zm4.7,47.4v-17.6h-4.7v17.6Zm19-30.5h18.2V444H539.9Z"/><path class="cls-2" d="M588.6,395.53h13v-9h14.9v9h13.6v12.1h-4.5v12.3h5.5v13H586.5v-13h5.8v-12.3h-3.7Zm1.7,79.6h38.3v-36.8H590.3Zm14.2-13v-10.5h10.2v10.5Zm1.3-42.2h6.5v-12.3h-6.5Zm41,55.1v-6h4.9c9.2,0,14.4-10.1,14.4-21.9a44.57,44.57,0,0,0-6.6-22.9l7.5-35.9H632.9V475Zm0-52.1v-21h4Zm0,31.2v-26.4c3.2,5.8,5,13,5,17.6,0,5.1-1.6,8.8-4.2,8.8Z"/><path class="cls-2" d="M676.7,412.73h16.2v61.5H676.7Zm13.8-5.6,10.2-10.2L689,385.43l-10.1,10.2Zm15.2-16v14.4h25.2v63.9l-3.4,4.8h19.7V391.13Z"/><path class="cls-2" d="M762.9,427.33H833v12.2H807.2V445h17.2v11.6H807.2V462h26.6v13.4H799.9c-6,0-16.5-.2-23.8-7.9l-3.5,7.9-12-6.1,12.8-28.9,12.6,4.5-3.9,8.8a18.3,18.3,0,0,0,8.1,6.6v-20.8H762.9Zm8.6-38.4h52.8v35.3H771.5Zm37.7,10.7H786.6V403h22.6Zm0,14.1v-3.4H786.6v3.4Z"/><circle class="cls-3" cx="613.83" cy="195.06" r="36.33"/></svg>